<?xml version="1.0" encoding="UTF-8" standalone="no"?>
<svg width="180px" height="60px" viewBox="0 0 180 60" version="1.1" xmlns="http://www.w3.org/2000/svg" xmlns:xlink="http://www.w3.org/1999/xlink" xmlns:sketch="http://www.bohemiancoding.com/sketch/ns">
    <!-- Generator: Sketch 3.1.1 (8761) - http://www.bohemiancoding.com/sketch -->
    <title>logo</title>
    <desc>Created with Sketch.</desc>
    <defs></defs>
    <g id="Page-1" stroke="none" stroke-width="1" fill="none" fill-rule="evenodd" sketch:type="MSPage">
        <g id="step1" sketch:type="MSArtboardGroup" transform="translate(-151.000000, -35.000000)" fill="#D9222A">
            <g id="logo" sketch:type="MSLayerGroup" transform="translate(151.000000, 35.000000)">
                <path d="M148.766,41.857 C147.34,37.387 146.024,33.205 144.324,27.718 C142.727,32.972 141.409,37.273 140.015,41.857 L148.766,41.857 L148.766,41.857 Z M74.326,15.834 C74.326,16.506 74.199,17.063 73.944,17.506 C73.69,17.949 73.347,18.299 72.914,18.56 C72.481,18.819 71.972,19 71.387,19.102 C70.802,19.203 70.179,19.254 69.516,19.254 C69.262,19.254 69.002,19.249 68.738,19.239 C68.474,19.228 68.217,19.216 67.967,19.2 C67.718,19.185 67.486,19.167 67.272,19.148 C67.059,19.126 66.876,19.102 66.723,19.071 C66.418,19.02 66.201,18.929 66.074,18.796 C65.947,18.663 65.883,18.425 65.883,18.079 L65.883,8.796 C65.883,8.449 65.944,8.21 66.067,8.078 C66.188,7.946 66.397,7.854 66.692,7.803 C66.825,7.782 66.995,7.762 67.204,7.742 C67.413,7.722 67.642,7.704 67.891,7.688 C68.14,7.673 68.397,7.66 68.663,7.651 C68.926,7.641 69.181,7.635 69.425,7.635 C70.148,7.635 70.805,7.688 71.394,7.795 C71.986,7.903 72.491,8.078 72.914,8.322 C73.337,8.567 73.665,8.892 73.898,9.299 C74.134,9.707 74.25,10.215 74.25,10.826 L74.25,11.101 C74.25,11.599 74.138,12.048 73.914,12.444 C73.69,12.841 73.375,13.141 72.967,13.346 C73.375,13.549 73.703,13.844 73.952,14.231 C74.202,14.618 74.326,15.075 74.326,15.605 L74.326,15.834 L74.326,15.834 Z M71.731,10.993 C71.731,10.577 71.575,10.269 71.265,10.07 C70.955,9.872 70.408,9.773 69.623,9.773 L69.371,9.773 L69.036,9.773 C68.918,9.773 68.807,9.775 68.7,9.781 C68.593,9.786 68.514,9.788 68.464,9.788 L68.464,12.429 L70.173,12.429 C70.479,12.429 70.731,12.396 70.929,12.33 C71.128,12.263 71.285,12.177 71.403,12.07 C71.519,11.963 71.603,11.837 71.655,11.688 C71.705,11.542 71.731,11.386 71.731,11.223 L71.731,10.993 L71.731,10.993 Z M71.792,15.605 C71.792,15.238 71.675,14.921 71.441,14.65 C71.207,14.381 70.784,14.246 70.173,14.246 L68.464,14.246 L68.464,17.101 L68.731,17.101 C68.848,17.101 68.97,17.104 69.097,17.109 C69.224,17.114 69.346,17.116 69.463,17.116 L69.716,17.116 C70.499,17.116 71.041,17 71.341,16.765 C71.641,16.531 71.792,16.2 71.792,15.773 L71.792,15.605 L71.792,15.605 Z M76.097,8.063 C76.097,7.981 76.128,7.912 76.189,7.856 C76.25,7.8 76.322,7.772 76.403,7.772 L78.204,7.772 C78.286,7.772 78.357,7.8 78.418,7.856 C78.479,7.912 78.509,7.981 78.509,8.063 L78.509,14.522 C78.509,14.612 78.535,14.658 78.586,14.658 C78.617,14.658 78.657,14.618 78.708,14.536 L82.326,8.245 C82.418,8.082 82.51,7.963 82.601,7.886 C82.693,7.81 82.816,7.772 82.968,7.772 L84.51,7.772 C84.673,7.772 84.81,7.828 84.923,7.941 C85.034,8.051 85.09,8.19 85.09,8.353 L85.09,18.811 C85.09,18.893 85.06,18.964 84.998,19.026 C84.937,19.086 84.866,19.117 84.785,19.117 L82.983,19.117 C82.902,19.117 82.83,19.086 82.769,19.026 C82.708,18.964 82.678,18.893 82.678,18.811 L82.678,12.628 C82.678,12.546 82.652,12.505 82.601,12.505 C82.561,12.505 82.515,12.546 82.464,12.628 L78.983,18.643 C78.861,18.847 78.739,18.976 78.617,19.033 C78.495,19.089 78.352,19.117 78.189,19.117 L76.693,19.117 C76.53,19.117 76.39,19.06 76.273,18.949 C76.155,18.837 76.097,18.699 76.097,18.537 L76.097,8.063 L76.097,8.063 Z M95.595,11.452 C95.595,12.165 95.464,12.758 95.206,13.231 C94.946,13.704 94.602,14.083 94.175,14.368 C93.748,14.653 93.261,14.854 92.716,14.971 C92.172,15.089 91.615,15.147 91.045,15.147 C90.861,15.147 90.658,15.141 90.434,15.132 C90.21,15.121 90.001,15.111 89.808,15.101 L89.808,18.811 C89.808,18.893 89.778,18.964 89.717,19.026 C89.655,19.086 89.584,19.117 89.503,19.117 L87.533,19.117 C87.451,19.117 87.381,19.089 87.32,19.033 C87.259,18.976 87.228,18.907 87.228,18.827 L87.228,8.567 C87.228,8.302 87.284,8.123 87.396,8.032 C87.508,7.941 87.681,7.874 87.915,7.833 C88.302,7.772 88.777,7.724 89.342,7.688 C89.908,7.652 90.465,7.635 91.014,7.635 C91.595,7.635 92.159,7.691 92.709,7.803 C93.259,7.914 93.748,8.114 94.175,8.399 C94.602,8.683 94.946,9.062 95.206,9.536 C95.464,10.009 95.595,10.602 95.595,11.315 L95.595,11.452 L95.595,11.452 Z M92.999,11.315 C92.999,10.765 92.834,10.375 92.503,10.147 C92.172,9.918 91.686,9.803 91.045,9.803 C90.994,9.803 90.908,9.805 90.786,9.81 C90.663,9.815 90.538,9.821 90.411,9.827 C90.284,9.83 90.162,9.837 90.045,9.842 C89.927,9.847 89.849,9.848 89.808,9.848 L89.808,12.963 C89.849,12.963 89.927,12.966 90.045,12.971 C90.162,12.976 90.289,12.981 90.426,12.986 C90.564,12.992 90.691,12.994 90.808,12.994 L91.045,12.994 C91.727,12.994 92.223,12.868 92.534,12.612 C92.843,12.358 92.999,11.971 92.999,11.452 L92.999,11.315 L92.999,11.315 Z M104.68,9.635 C104.68,9.717 104.646,9.786 104.579,9.842 C104.513,9.897 104.44,9.925 104.359,9.925 L101.885,9.925 L101.885,18.811 C101.885,18.893 101.855,18.964 101.794,19.026 C101.732,19.086 101.661,19.117 101.579,19.117 L99.579,19.117 C99.498,19.117 99.426,19.086 99.366,19.026 C99.304,18.964 99.274,18.893 99.274,18.811 L99.274,9.925 L96.786,9.925 C96.704,9.925 96.632,9.897 96.572,9.842 C96.51,9.786 96.48,9.717 96.48,9.635 L96.48,8.063 C96.48,7.981 96.51,7.912 96.572,7.856 C96.632,7.8 96.704,7.772 96.786,7.772 L104.359,7.772 C104.44,7.772 104.513,7.8 104.579,7.856 C104.646,7.912 104.68,7.981 104.68,8.063 L104.68,9.635 L104.68,9.635 Z M113.748,8.048 C113.748,8.067 113.746,8.08 113.74,8.086 C113.735,8.09 113.733,8.103 113.733,8.123 L111.168,16.75 C111.046,17.167 110.908,17.531 110.756,17.842 C110.603,18.152 110.404,18.409 110.161,18.612 C109.916,18.816 109.606,18.972 109.23,19.078 C108.852,19.185 108.384,19.239 107.825,19.239 C107.682,19.239 107.525,19.231 107.35,19.216 C107.179,19.2 107.004,19.183 106.833,19.162 C106.66,19.142 106.496,19.117 106.343,19.086 C106.19,19.055 106.068,19.026 105.978,18.995 C105.896,18.964 105.822,18.931 105.755,18.895 C105.689,18.86 105.657,18.801 105.657,18.72 L105.657,17.483 C105.657,17.401 105.687,17.333 105.748,17.277 C105.809,17.221 105.88,17.193 105.962,17.193 L105.993,17.193 C106.115,17.203 106.26,17.213 106.428,17.223 C106.596,17.233 106.768,17.246 106.946,17.262 C107.124,17.277 107.298,17.289 107.466,17.299 C107.633,17.31 107.779,17.315 107.901,17.315 C108.176,17.315 108.389,17.259 108.542,17.147 C108.695,17.035 108.817,16.826 108.908,16.52 L109.046,16.048 L108.817,16.048 C108.675,16.048 108.54,16.035 108.412,16.01 C108.285,15.984 108.163,15.923 108.046,15.826 C107.929,15.73 107.817,15.587 107.71,15.399 C107.603,15.21 107.499,14.953 107.397,14.628 L105.381,8.123 C105.372,8.092 105.365,8.057 105.365,8.017 C105.365,7.854 105.469,7.772 105.672,7.772 L107.703,7.772 C107.784,7.772 107.848,7.8 107.893,7.856 C107.939,7.912 107.972,7.981 107.992,8.063 L109.367,13.437 C109.397,13.549 109.425,13.625 109.45,13.666 C109.476,13.706 109.529,13.727 109.61,13.727 L109.687,13.727 L111.107,8.063 C111.127,7.981 111.166,7.912 111.222,7.856 C111.277,7.8 111.346,7.772 111.428,7.772 L113.458,7.772 C113.54,7.772 113.609,7.798 113.664,7.849 C113.721,7.9 113.748,7.966 113.748,8.048 L113.748,8.048 Z M122.986,18.872 C122.986,19.034 122.899,19.117 122.726,19.117 L120.589,19.117 C120.508,19.117 120.44,19.091 120.389,19.04 C120.338,18.99 120.304,18.923 120.283,18.842 L119.733,16.338 L116.604,16.338 L116.054,18.842 C116.033,18.923 115.998,18.99 115.947,19.04 C115.896,19.091 115.83,19.117 115.749,19.117 L113.61,19.117 C113.438,19.117 113.352,19.034 113.352,18.872 C113.352,18.862 113.354,18.852 113.359,18.842 C113.364,18.831 113.367,18.816 113.367,18.796 L115.641,9.33 C115.733,8.964 115.865,8.668 116.039,8.444 C116.212,8.22 116.412,8.049 116.642,7.933 C116.871,7.815 117.118,7.737 117.382,7.695 C117.647,7.656 117.911,7.635 118.176,7.635 C118.441,7.635 118.703,7.656 118.962,7.695 C119.222,7.737 119.467,7.815 119.696,7.933 C119.924,8.049 120.125,8.22 120.298,8.444 C120.471,8.668 120.604,8.964 120.695,9.33 L122.97,18.796 C122.97,18.816 122.973,18.831 122.978,18.842 C122.983,18.852 122.986,18.862 122.986,18.872 L122.986,18.872 Z M118.375,10.032 C118.354,9.951 118.334,9.893 118.314,9.857 C118.293,9.821 118.248,9.803 118.176,9.803 C118.064,9.803 117.993,9.879 117.963,10.032 L117.031,14.246 L119.305,14.246 L118.375,10.032 L118.375,10.032 Z M128.589,10.032 C128.569,9.951 128.548,9.893 128.528,9.857 C128.507,9.821 128.461,9.803 128.391,9.803 C128.279,9.803 128.207,9.879 128.176,10.032 L126.267,18.842 C126.247,18.923 126.213,18.99 126.162,19.04 C126.109,19.091 126.044,19.117 125.963,19.117 L123.826,19.117 C123.652,19.117 123.566,19.034 123.566,18.872 C123.566,18.862 123.568,18.852 123.573,18.842 C123.578,18.831 123.581,18.816 123.581,18.796 L125.855,9.33 C125.947,8.964 126.08,8.668 126.253,8.444 C126.426,8.22 126.627,8.049 126.856,7.933 C127.085,7.815 127.332,7.737 127.596,7.695 C127.861,7.656 128.125,7.635 128.391,7.635 C128.655,7.635 128.917,7.656 129.177,7.695 C129.437,7.737 129.68,7.815 129.91,7.933 C130.139,8.049 130.34,8.22 130.512,8.444 C130.686,8.668 130.818,8.964 130.91,9.33 L133.184,18.796 C133.184,18.816 133.188,18.831 133.192,18.842 C133.197,18.852 133.2,18.862 133.2,18.872 C133.2,19.034 133.113,19.117 132.94,19.117 L130.803,19.117 C130.722,19.117 130.655,19.091 130.604,19.04 C130.554,18.99 130.517,18.923 130.497,18.842 L128.589,10.032 L128.589,10.032 Z M134.559,8.078 C134.559,7.997 134.589,7.925 134.65,7.864 C134.712,7.803 134.782,7.772 134.864,7.772 L136.848,7.772 C136.93,7.772 137.002,7.803 137.063,7.864 C137.123,7.925 137.154,7.997 137.154,8.078 L137.154,12.154 C137.327,12.144 137.501,12.136 137.673,12.131 C137.846,12.125 138.019,12.124 138.192,12.124 C138.854,12.124 139.478,12.172 140.063,12.268 C140.647,12.365 141.157,12.544 141.589,12.804 C142.022,13.063 142.365,13.42 142.62,13.873 C142.875,14.325 143.002,14.902 143.002,15.605 L143.002,15.712 C143.002,16.414 142.875,16.994 142.62,17.452 C142.365,17.91 142.022,18.274 141.589,18.544 C141.157,18.814 140.647,19 140.063,19.102 C139.478,19.203 138.854,19.254 138.192,19.254 C137.938,19.254 137.678,19.249 137.414,19.239 C137.149,19.228 136.892,19.216 136.643,19.2 C136.394,19.185 136.162,19.167 135.948,19.148 C135.734,19.126 135.551,19.102 135.398,19.071 C135.093,19.02 134.876,18.929 134.749,18.796 C134.622,18.663 134.559,18.425 134.559,18.079 L134.559,8.078 L134.559,8.078 Z M138.055,17.116 C138.544,17.116 138.946,17.091 139.261,17.041 C139.577,16.99 139.824,16.905 140.002,16.789 C140.18,16.671 140.302,16.524 140.368,16.346 C140.434,16.168 140.467,15.956 140.467,15.712 L140.467,15.605 C140.467,15.36 140.434,15.152 140.368,14.98 C140.302,14.806 140.18,14.665 140.002,14.559 C139.824,14.453 139.577,14.375 139.261,14.329 C138.946,14.285 138.544,14.262 138.055,14.262 L137.673,14.262 C137.582,14.262 137.508,14.264 137.452,14.269 C137.396,14.273 137.347,14.277 137.307,14.277 L137.154,14.277 L137.154,17.101 L137.307,17.101 C137.347,17.101 137.396,17.104 137.452,17.109 C137.508,17.114 137.582,17.116 137.673,17.116 L138.055,17.116 L138.055,17.116 Z M153.766,18.811 C153.766,18.893 153.735,18.964 153.674,19.026 C153.613,19.086 153.542,19.117 153.461,19.117 L151.46,19.117 C151.379,19.117 151.308,19.086 151.247,19.026 C151.185,18.964 151.155,18.893 151.155,18.811 L151.155,14.399 L147.384,14.399 L147.384,18.811 C147.384,18.893 147.353,18.964 147.292,19.026 C147.231,19.086 147.16,19.117 147.078,19.117 L145.079,19.117 C144.997,19.117 144.926,19.086 144.864,19.026 C144.803,18.964 144.773,18.893 144.773,18.811 L144.773,8.063 C144.773,7.981 144.803,7.912 144.864,7.856 C144.926,7.8 144.997,7.772 145.079,7.772 L147.078,7.772 C147.16,7.772 147.231,7.8 147.292,7.856 C147.353,7.912 147.384,7.981 147.384,8.063 L147.384,12.124 L151.155,12.124 L151.155,8.063 C151.155,7.981 151.185,7.912 151.247,7.856 C151.308,7.8 151.379,7.772 151.46,7.772 L153.461,7.772 C153.542,7.772 153.613,7.8 153.674,7.856 C153.735,7.912 153.766,7.981 153.766,8.063 L153.766,18.811 L153.766,18.811 Z M164.758,18.872 C164.758,19.034 164.672,19.117 164.5,19.117 L162.361,19.117 C162.281,19.117 162.214,19.091 162.164,19.04 C162.113,18.99 162.077,18.923 162.056,18.842 L161.506,16.338 L158.376,16.338 L157.827,18.842 C157.806,18.923 157.772,18.99 157.721,19.04 C157.67,19.091 157.603,19.117 157.522,19.117 L155.384,19.117 C155.211,19.117 155.124,19.034 155.124,18.872 C155.124,18.862 155.127,18.852 155.132,18.842 C155.137,18.831 155.14,18.816 155.14,18.796 L157.416,9.33 C157.507,8.964 157.638,8.668 157.811,8.444 C157.984,8.22 158.187,8.049 158.414,7.933 C158.644,7.815 158.89,7.737 159.155,7.695 C159.42,7.656 159.684,7.635 159.949,7.635 C160.214,7.635 160.476,7.656 160.736,7.695 C160.995,7.737 161.241,7.815 161.468,7.933 C161.698,8.049 161.898,8.22 162.071,8.444 C162.245,8.668 162.377,8.964 162.469,9.33 L164.744,18.796 C164.744,18.816 164.745,18.831 164.751,18.842 C164.756,18.852 164.758,18.862 164.758,18.872 L164.758,18.872 Z M160.147,10.032 C160.127,9.951 160.106,9.893 160.087,9.857 C160.067,9.821 160.02,9.803 159.949,9.803 C159.837,9.803 159.766,9.879 159.735,10.032 L158.805,14.246 L161.079,14.246 L160.147,10.032 L160.147,10.032 Z M165.599,18.933 C165.599,18.883 165.614,18.827 165.644,18.765 L167.95,14.46 C167.39,14.236 166.922,13.874 166.545,13.376 C166.168,12.877 165.98,12.221 165.98,11.406 L165.98,11.207 C165.98,10.536 166.098,9.972 166.331,9.513 C166.565,9.054 166.889,8.687 167.3,8.406 C167.712,8.127 168.199,7.927 168.759,7.81 C169.318,7.693 169.924,7.635 170.576,7.635 C170.851,7.635 171.134,7.641 171.422,7.651 C171.713,7.66 171.995,7.675 172.271,7.695 C172.545,7.717 172.805,7.737 173.049,7.758 C173.293,7.777 173.502,7.803 173.676,7.833 C173.909,7.874 174.082,7.941 174.194,8.032 C174.306,8.123 174.362,8.302 174.362,8.567 L174.362,18.811 C174.362,18.893 174.331,18.964 174.271,19.026 C174.209,19.086 174.138,19.117 174.057,19.117 L172.072,19.117 C171.99,19.117 171.92,19.086 171.858,19.026 C171.797,18.964 171.767,18.893 171.767,18.811 L171.767,14.933 C171.624,14.933 171.449,14.938 171.24,14.948 C171.031,14.959 170.846,14.963 170.682,14.963 L170.515,14.948 L168.469,18.811 C168.428,18.893 168.387,18.964 168.347,19.026 C168.306,19.086 168.245,19.117 168.163,19.117 L165.828,19.117 C165.675,19.117 165.599,19.055 165.599,18.933 L165.599,18.933 Z M168.576,11.406 C168.576,11.671 168.611,11.895 168.682,12.078 C168.754,12.261 168.871,12.409 169.034,12.521 C169.197,12.633 169.412,12.716 169.683,12.773 C169.953,12.829 170.286,12.857 170.682,12.857 L170.896,12.857 C170.998,12.857 171.107,12.854 171.224,12.848 C171.342,12.844 171.451,12.839 171.553,12.834 C171.654,12.829 171.726,12.827 171.767,12.827 L171.767,9.895 C171.716,9.895 171.637,9.893 171.53,9.887 C171.422,9.881 171.309,9.877 171.186,9.872 C171.064,9.866 170.945,9.862 170.828,9.857 C170.71,9.852 170.627,9.848 170.576,9.848 C169.934,9.848 169.441,9.958 169.095,10.178 C168.748,10.396 168.576,10.739 168.576,11.207 L168.576,11.406 L168.576,11.406 Z M65.537,46.224 C68.92,46.282 70.135,45.604 70.135,41.129 C70.135,38.201 70.195,35.496 70.161,32.58 L70.135,32.58 L70.135,26.223 L74.627,26.223 C76.054,26.223 77.052,26.292 77.618,26.441 C78.18,26.588 78.686,26.927 79.125,27.448 C79.565,27.972 79.782,28.612 79.782,29.367 C79.782,30.442 79.427,31.243 78.705,31.78 C77.985,32.316 76.689,32.58 74.813,32.58 L70.19,32.58 C71.423,36.649 73.084,36.615 76.286,36.615 C77.904,36.615 79.293,36.386 80.461,35.921 C81.628,35.456 82.598,34.621 83.372,33.425 C84.15,32.227 84.539,30.856 84.539,29.301 C84.539,27.672 84.134,26.274 83.325,25.098 C82.517,23.924 81.621,23.147 80.63,22.764 C79.644,22.381 78.195,22.188 76.286,22.188 L65.537,22.188 L65.537,46.224 L65.537,46.224 Z M135.712,41.857 L140.546,26.988 C141.871,22.915 141.708,22.147 144.291,22.003 C146.942,21.855 146.966,22.991 147.774,25.411 L153.217,41.857 C154.655,41.857 155.431,43.145 155.431,45.47 L155.431,49.765 C151.213,49.765 151.445,47.236 151.608,45.744 L137.267,45.744 C137.292,47.926 137.662,49.765 133.443,49.765 L133.443,45.781 C133.443,43.886 133.167,41.857 135.712,41.857 L135.712,41.857 Z M86.013,21.708 C89.397,21.648 90.611,22.329 90.611,26.803 C90.611,29.731 90.672,32.435 90.638,35.352 L90.611,35.352 L90.611,41.709 L95.104,41.709 C96.53,41.709 97.528,41.639 98.095,41.491 C98.658,41.344 99.163,41.005 99.601,40.483 C100.042,39.959 100.259,39.32 100.259,38.564 C100.259,37.49 99.903,36.689 99.182,36.152 C98.461,35.616 97.166,35.352 95.289,35.352 L90.667,35.352 C91.9,31.284 93.561,31.316 96.763,31.316 C98.381,31.316 99.771,31.546 100.938,32.011 C102.104,32.475 103.074,33.31 103.85,34.507 C104.627,35.705 105.016,37.076 105.016,38.632 C105.016,40.26 104.611,41.658 103.802,42.834 C102.995,44.007 102.098,44.784 101.107,45.167 C100.121,45.55 98.672,45.744 96.763,45.744 L86.013,45.744 L86.013,21.708 L86.013,21.708 Z M106.283,21.708 C108.096,21.76 110.882,20.666 110.882,25.141 L110.882,45.744 C108.904,45.796 106.387,45.78 106.283,42.678 L106.283,21.708 L106.283,21.708 Z M114.044,41.221 L114.044,21.708 C118.281,21.708 118.647,22.619 118.647,27.17 L118.647,31.166 L127.659,31.166 L127.659,21.708 C129.958,21.708 132.257,21.953 132.257,24.703 L132.257,45.744 C127.863,45.744 127.697,44.226 127.659,41.993 L127.659,35.234 L118.647,35.234 L118.647,45.744 C114.75,45.744 114.044,45.459 114.044,41.221 L114.044,41.221 Z M179.76,45.744 C176.849,45.85 174.749,46.42 173.637,42.677 L172.765,40.282 L163.658,40.282 L162.876,42.555 C161.468,46.653 159.756,45.744 156.901,45.744 L164.253,25.688 C165.354,22.705 166.273,21.953 168.465,21.768 C170.224,21.618 170.848,21.991 171.462,23.607 L179.76,45.744 L179.76,45.744 Z M171.29,36.236 L168.15,27.316 C166.647,31.673 165.275,35.869 163.759,40.136 C165.149,37.518 166.838,36.256 168.48,36.249 L171.29,36.236 L171.29,36.236 Z" id="Fill-1" sketch:type="MSShapeGroup"></path>
                <path d="M45.207,42.459 C50.855,42.888 53.014,47.96 51.634,52.635 C55.961,46.951 51.438,39.284 45.207,42.459" id="Fill-2" sketch:type="MSShapeGroup"></path>
                <path d="M35.85,48.548 C34.303,53.993 38.806,57.439 44.082,57.327 C37.626,61.074 31.524,54.811 35.85,48.548" id="Fill-3" sketch:type="MSShapeGroup"></path>
                <path d="M41.46,41.282 L41.348,39.17 L41.58,38.944 C42.157,38.38 42.636,37.928 43.064,37.523 C44.596,36.075 45.476,35.245 47.131,32.85 L47.159,32.811 C49.941,29.307 51.341,26.808 51.658,24.997 C51.934,23.423 51.298,22.396 50.005,21.653 C49.373,21.291 48.584,20.984 47.667,20.711 C46.732,20.434 45.657,20.191 44.476,19.959 C40.994,19.275 38.283,18.556 35.716,17.407 C33.145,16.256 30.747,14.687 27.901,12.311 C26.097,10.804 23.696,8.874 21.183,7.291 C18.718,5.739 16.145,4.515 13.946,4.367 C13.541,4.34 13.152,4.332 12.78,4.344 C12.4,4.356 12.025,4.388 11.656,4.439 C10.781,4.559 9.992,4.786 9.31,5.102 C8.633,5.415 8.064,5.815 7.625,6.283 C6.916,7.039 6.335,7.946 5.914,8.975 C5.501,9.985 5.239,11.117 5.156,12.347 C5.129,12.748 5.123,13.154 5.139,13.563 C5.154,13.967 5.191,14.385 5.251,14.817 C5.717,18.211 7.267,20.607 9.099,23.44 C9.643,24.281 10.21,25.158 10.75,26.053 C11.298,26.808 11.788,27.594 12.225,28.398 C14.361,32.324 15.117,36.544 15.204,39.879 C15.295,43.357 14.57,46.001 13.907,46.483 L13.907,46.482 C13.864,46.513 13.827,46.536 13.794,46.554 L12.45,47.291 L12.756,45.789 C13.312,43.061 10.814,38.915 8.216,34.604 L8.216,34.601 L8.192,34.56 L8.19,34.561 C7.485,33.39 7.546,33.493 7.482,33.385 C3.092,26.153 -2.798,16.445 2.228,8.185 L2.195,8.157 L2.135,8.104 L2.095,8.051 C0.617,6.09 0.84,4.276 1.789,2.872 C2.281,2.146 2.973,1.542 3.719,1.099 C4.46,0.659 5.269,0.372 5.995,0.278 C7.178,0.125 8.177,0.472 8.54,1.444 C8.692,1.85 8.611,2.314 8.263,2.828 C11.276,1.535 14.697,1.462 18.079,2.192 C22.967,3.246 27.783,5.99 31.119,9.12 C31.287,9.278 31.458,9.443 31.628,9.614 C33.622,11.6 35.527,12.916 37.595,13.824 C39.675,14.738 41.941,15.251 44.637,15.624 C45.73,15.775 46.833,15.945 47.909,16.204 C49.005,16.467 50.052,16.82 50.993,17.329 C51.81,17.77 52.552,18.332 53.183,19.055 C53.813,19.778 54.328,20.656 54.691,21.732 C55.442,23.96 54.925,26.395 53.718,28.84 C52.559,31.189 50.758,33.557 48.859,35.749 C47.704,37.082 46.781,38.071 45.827,38.989 C44.878,39.902 43.896,40.746 42.621,41.794 L41.535,42.686 L41.46,41.282" id="Fill-4" sketch:type="MSShapeGroup"></path>
                <path d="M37.977,45.372 C36.683,46.353 35.507,47.197 34.275,48.007 C32.962,48.871 31.594,49.69 29.961,50.584 C26.618,52.414 22.845,53.769 20.052,53.831 C18.793,53.858 17.72,53.625 16.949,53.06 C16.154,52.476 15.692,51.561 15.691,50.246 C15.69,48.431 16.592,45.812 18.761,42.184 C21.708,37.258 25.925,33.329 30.34,30.342 C36.348,26.276 42.736,23.948 46.78,23.221 C47.654,23.064 48.308,23.083 48.771,23.247 C49.347,23.452 49.643,23.857 49.704,24.42 C49.757,24.902 49.616,25.499 49.321,26.177 C48.557,27.933 46.709,30.34 44.529,32.725 L43.431,33.925 L43.929,32.377 C44.151,31.687 44.428,30.984 44.699,30.298 C45.302,28.766 45.876,27.311 45.649,26.558 C45.474,25.979 44.66,25.823 42.651,26.43 C39.395,27.414 34.165,29.81 29.424,33.76 C26.091,36.538 23,40.086 21.014,44.453 C18.85,49.21 19.72,50.779 21.709,50.868 C23.916,50.966 27.382,49.495 29.962,48.264 L29.962,48.265 C31.298,47.532 32.461,46.836 33.579,46.092 C34.623,45.397 35.62,44.665 36.675,43.83 C35.495,41.962 33.974,40.238 32.422,38.479 C31.653,37.606 30.875,36.724 30.121,35.806 L29.913,35.552 L30.147,35.325 L31.758,33.762 L32.039,33.49 L32.283,33.794 C32.714,34.332 33.065,34.775 33.428,35.232 C36.082,38.575 38.902,42.126 42.117,44.6 L42.147,44.58 C42.359,44.438 42.472,44.363 43.75,44.378 L43.752,44.378 C44.736,44.389 46.222,45.116 47.323,46.243 C48.204,47.145 48.855,48.311 48.84,49.587 C48.824,51.01 48.232,52.291 47.289,53.211 C46.346,54.132 45.052,54.693 43.63,54.676 C42.32,54.661 41.14,53.988 40.248,53.075 C39.189,51.991 38.529,50.548 38.541,49.467 C38.561,47.752 38.69,47.577 39.131,46.98 L39.146,46.959 C38.945,46.713 38.714,46.389 38.487,46.071 C38.307,45.818 38.129,45.568 37.977,45.372" id="Fill-5" sketch:type="MSShapeGroup"></path>
                <path d="M52.707,41.43 C54.946,42.566 55.741,44.679 55.179,47.177 C57.654,44.653 56.348,40.598 52.707,41.43" id="Fill-6" sketch:type="MSShapeGroup"></path>
                <path d="M32.643,55.23 C33.077,57.704 34.866,59.08 37.42,59.27 C34.283,60.903 30.786,58.471 32.643,55.23" id="Fill-7" sketch:type="MSShapeGroup"></path>
            </g>
        </g>
    </g>
</svg>