<?xml version="1.0" encoding="UTF-8" standalone="no"?>
<svg width="222px" height="227px" viewBox="0 0 222 227" version="1.1" xmlns="http://www.w3.org/2000/svg" xmlns:xlink="http://www.w3.org/1999/xlink" xmlns:sketch="http://www.bohemiancoding.com/sketch/ns">
    <!-- Generator: Sketch 3.1.1 (8761) - http://www.bohemiancoding.com/sketch -->
    <title>Rectangle 3 + теперь open source</title>
    <desc>Created with Sketch.</desc>
    <defs></defs>
    <g id="Page-1" stroke="none" stroke-width="1" fill="none" fill-rule="evenodd" sketch:type="MSPage">
        <g id="step1" sketch:type="MSArtboardGroup" transform="translate(-907.000000, -163.000000)">
            <g id="Rectangle-3-+-теперь-open-source" sketch:type="MSLayerGroup" transform="translate(907.000000, 163.000000)">
                <path d="M222,226.289062 L222,164.355469 L64.2773438,0.24609375 L0,0 L222,226.289062 Z" id="Rectangle-3" fill="#D8232A" sketch:type="MSShapeGroup"></path>
                <path d="M36.300293,95.3779297 L45.2006836,95.3779297 L45.2006836,96.7211914 L41.6733398,96.7211914 L41.6733398,106.472656 L39.8276367,106.472656 L39.8276367,96.7211914 L36.300293,96.7211914 L36.300293,95.3779297 Z M48.1538086,101.314941 C48.1538086,102.586432 48.4169896,103.567379 48.9433594,104.257812 C49.4697292,104.948246 50.2387645,105.293457 51.2504883,105.293457 C52.050297,105.293457 52.6911597,105.132814 53.1730957,104.811523 C53.6550317,104.490233 53.9814445,104.083499 54.1523438,103.591309 L55.7724609,104.052734 C55.1093717,105.802743 53.6020625,106.677734 51.2504883,106.677734 C49.6098551,106.677734 48.3606,106.18897 47.5026855,105.211426 C46.6447711,104.233882 46.2158203,102.78126 46.2158203,100.853516 C46.2158203,99.0214752 46.6447711,97.6167041 47.5026855,96.6391602 C48.3606,95.6616162 49.5859295,95.1728516 51.1787109,95.1728516 C54.4394694,95.1728516 56.0698242,97.1381639 56.0698242,101.068848 L56.0698242,101.314941 L48.1538086,101.314941 Z M54.1625977,99.8999023 C54.0600581,98.7309512 53.7626978,97.8781765 53.2705078,97.3415527 C52.7783179,96.804929 52.0708054,96.5366211 51.1479492,96.5366211 C50.2524369,96.5366211 49.5432155,96.8356904 49.0202637,97.4338379 C48.4973118,98.0319854 48.2153322,98.8539987 48.1743164,99.8999023 L54.1625977,99.8999023 Z M66.918457,95.3779297 L66.918457,106.472656 L65.0727539,106.472656 L65.0727539,96.7211914 L60.3046875,96.7211914 L60.3046875,106.472656 L58.4589844,106.472656 L58.4589844,95.3779297 L66.918457,95.3779297 Z M71.2045898,101.314941 C71.2045898,102.586432 71.4677708,103.567379 71.9941406,104.257812 C72.5205104,104.948246 73.2895457,105.293457 74.3012695,105.293457 C75.1010782,105.293457 75.7419409,105.132814 76.223877,104.811523 C76.705813,104.490233 77.0322257,104.083499 77.203125,103.591309 L78.8232422,104.052734 C78.1601529,105.802743 76.6528438,106.677734 74.3012695,106.677734 C72.6606363,106.677734 71.4113812,106.18897 70.5534668,105.211426 C69.6955524,104.233882 69.2666016,102.78126 69.2666016,100.853516 C69.2666016,99.0214752 69.6955524,97.6167041 70.5534668,96.6391602 C71.4113812,95.6616162 72.6367108,95.1728516 74.2294922,95.1728516 C77.4902507,95.1728516 79.1206055,97.1381639 79.1206055,101.068848 L79.1206055,101.314941 L71.2045898,101.314941 Z M77.2133789,99.8999023 C77.1108393,98.7309512 76.813479,97.8781765 76.3212891,97.3415527 C75.8290991,96.804929 75.1215866,96.5366211 74.1987305,96.5366211 C73.3032182,96.5366211 72.5939968,96.8356904 72.0710449,97.4338379 C71.5480931,98.0319854 71.2661135,98.8539987 71.2250977,99.8999023 L77.2133789,99.8999023 Z M90.8510742,100.874023 C90.8510742,104.743183 89.4907363,106.677734 86.7700195,106.677734 C85.0610266,106.677734 83.9126006,106.035163 83.324707,104.75 L83.2734375,104.75 C83.3007814,104.804688 83.3144531,105.385737 83.3144531,106.493164 L83.3144531,110.830566 L81.46875,110.830566 L81.46875,97.644043 C81.46875,96.5024357 81.4482424,95.7470722 81.4072266,95.3779297 L83.1914062,95.3779297 C83.1982422,95.4052736 83.208496,95.5026847 83.222168,95.670166 C83.2358399,95.8376473 83.2512206,96.0957014 83.2683105,96.4443359 C83.2854005,96.7929705 83.2939453,97.0322259 83.2939453,97.1621094 L83.3349609,97.1621094 C83.6630876,96.4785122 84.0971653,95.9777848 84.637207,95.6599121 C85.1772488,95.3420394 85.8881792,95.1831055 86.7700195,95.1831055 C88.1372139,95.1831055 89.1591763,95.6411087 89.8359375,96.5571289 C90.5126987,97.4731491 90.8510742,98.9120996 90.8510742,100.874023 L90.8510742,100.874023 Z M88.9130859,100.915039 C88.9130859,99.3701095 88.7045919,98.2661166 88.2875977,97.6030273 C87.8706034,96.9399381 87.2075241,96.6083984 86.2983398,96.6083984 C85.5668909,96.6083984 84.9943868,96.7622055 84.5808105,97.0698242 C84.1672343,97.3774429 83.8527843,97.8576628 83.6374512,98.510498 C83.4221181,99.1633333 83.3144531,100.01269 83.3144531,101.058594 C83.3144531,102.514656 83.5468727,103.587887 84.0117188,104.27832 C84.4765648,104.968753 85.2319284,105.313965 86.277832,105.313965 C87.1938522,105.313965 87.8620584,104.977298 88.2824707,104.303955 C88.702883,103.630612 88.9130859,102.500984 88.9130859,100.915039 L88.9130859,100.915039 Z M97.5571289,100.074219 C98.9585031,100.074219 100.018063,100.325437 100.73584,100.827881 C101.453617,101.330325 101.8125,102.124995 101.8125,103.211914 C101.8125,104.264654 101.443363,105.071286 100.705078,105.631836 C99.9667932,106.192386 98.9209052,106.472656 97.5673828,106.472656 L93.1889648,106.472656 L93.1889648,95.3779297 L95.034668,95.3779297 L95.034668,100.074219 L97.5571289,100.074219 Z M95.034668,105.17041 L97.2905273,105.17041 C98.1792037,105.17041 98.8286112,105.013185 99.2387695,104.69873 C99.6489278,104.384276 99.8540039,103.888675 99.8540039,103.211914 C99.8540039,102.569333 99.6557637,102.099367 99.2592773,101.802002 C98.862791,101.504637 98.2099655,101.355957 97.3007812,101.355957 L95.034668,101.355957 L95.034668,105.17041 Z M119.305664,100.915039 C119.305664,102.856455 118.878422,104.302241 118.023926,105.252441 C117.169429,106.202641 115.928719,106.677734 114.301758,106.677734 C112.681633,106.677734 111.458012,106.183843 110.630859,105.196045 C109.803707,104.208247 109.390137,102.781259 109.390137,100.915039 C109.390137,97.0868949 111.047835,95.1728516 114.363281,95.1728516 C116.058602,95.1728516 117.306148,95.6393996 118.105957,96.5725098 C118.905766,97.5056199 119.305664,98.9531152 119.305664,100.915039 L119.305664,100.915039 Z M117.367676,100.915039 C117.367676,99.3837814 117.140383,98.2712437 116.685791,97.5773926 C116.231199,96.8835415 115.467291,96.5366211 114.394043,96.5366211 C113.313959,96.5366211 112.532961,96.8903773 112.051025,97.5979004 C111.569089,98.3054235 111.328125,99.4111253 111.328125,100.915039 C111.328125,102.377937 111.565671,103.476803 112.040771,104.21167 C112.515872,104.946537 113.26269,105.313965 114.28125,105.313965 C115.388677,105.313965 116.179929,104.9585 116.655029,104.247559 C117.130129,103.536618 117.367676,102.425789 117.367676,100.915039 L117.367676,100.915039 Z M130.984863,100.874023 C130.984863,104.743183 129.624525,106.677734 126.903809,106.677734 C125.194816,106.677734 124.04639,106.035163 123.458496,104.75 L123.407227,104.75 C123.43457,104.804688 123.448242,105.385737 123.448242,106.493164 L123.448242,110.830566 L121.602539,110.830566 L121.602539,97.644043 C121.602539,96.5024357 121.582031,95.7470722 121.541016,95.3779297 L123.325195,95.3779297 C123.332031,95.4052736 123.342285,95.5026847 123.355957,95.670166 C123.369629,95.8376473 123.38501,96.0957014 123.4021,96.4443359 C123.41919,96.7929705 123.427734,97.0322259 123.427734,97.1621094 L123.46875,97.1621094 C123.796877,96.4785122 124.230954,95.9777848 124.770996,95.6599121 C125.311038,95.3420394 126.021968,95.1831055 126.903809,95.1831055 C128.271003,95.1831055 129.292965,95.6411087 129.969727,96.5571289 C130.646488,97.4731491 130.984863,98.9120996 130.984863,100.874023 L130.984863,100.874023 Z M129.046875,100.915039 C129.046875,99.3701095 128.838381,98.2661166 128.421387,97.6030273 C128.004392,96.9399381 127.341313,96.6083984 126.432129,96.6083984 C125.70068,96.6083984 125.128176,96.7622055 124.7146,97.0698242 C124.301023,97.3774429 123.986573,97.8576628 123.77124,98.510498 C123.555907,99.1633333 123.448242,100.01269 123.448242,101.058594 C123.448242,102.514656 123.680662,103.587887 124.145508,104.27832 C124.610354,104.968753 125.365717,105.313965 126.411621,105.313965 C127.327641,105.313965 127.995848,104.977298 128.41626,104.303955 C128.836672,103.630612 129.046875,102.500984 129.046875,100.915039 L129.046875,100.915039 Z M134.696777,101.314941 C134.696777,102.586432 134.959958,103.567379 135.486328,104.257812 C136.012698,104.948246 136.781733,105.293457 137.793457,105.293457 C138.593266,105.293457 139.234128,105.132814 139.716064,104.811523 C140.198,104.490233 140.524413,104.083499 140.695312,103.591309 L142.31543,104.052734 C141.65234,105.802743 140.145031,106.677734 137.793457,106.677734 C136.152824,106.677734 134.903569,106.18897 134.045654,105.211426 C133.18774,104.233882 132.758789,102.78126 132.758789,100.853516 C132.758789,99.0214752 133.18774,97.6167041 134.045654,96.6391602 C134.903569,95.6616162 136.128898,95.1728516 137.72168,95.1728516 C140.982438,95.1728516 142.612793,97.1381639 142.612793,101.068848 L142.612793,101.314941 L134.696777,101.314941 Z M140.705566,99.8999023 C140.603027,98.7309512 140.305667,97.8781765 139.813477,97.3415527 C139.321287,96.804929 138.613774,96.5366211 137.690918,96.5366211 C136.795406,96.5366211 136.086184,96.8356904 135.563232,97.4338379 C135.040281,98.0319854 134.758301,98.8539987 134.717285,99.8999023 L140.705566,99.8999023 Z M152.005371,106.472656 L152.005371,99.4384766 C152.005371,98.7070276 151.933594,98.1396505 151.790039,97.7363281 C151.646484,97.3330058 151.417482,97.0424814 151.103027,96.8647461 C150.788573,96.6870108 150.327151,96.5981445 149.71875,96.5981445 C148.830074,96.5981445 148.129397,96.9023407 147.616699,97.5107422 C147.104001,98.1191437 146.847656,98.9633735 146.847656,100.043457 L146.847656,106.472656 L145.001953,106.472656 L145.001953,97.746582 C145.001953,96.4545834 144.981446,95.6650405 144.94043,95.3779297 L146.683594,95.3779297 C146.69043,95.4121095 146.697266,95.5043938 146.704102,95.6547852 C146.710938,95.8051765 146.719482,95.9777822 146.729736,96.1726074 C146.73999,96.3674326 146.751953,96.7348606 146.765625,97.2749023 L146.796387,97.2749023 C147.220217,96.5092735 147.710691,95.9675309 148.267822,95.6496582 C148.824954,95.3317855 149.517086,95.1728516 150.344238,95.1728516 C151.561041,95.1728516 152.451413,95.4753388 153.015381,96.0803223 C153.579349,96.6853058 153.861328,97.6850516 153.861328,99.0795898 L153.861328,106.472656 L152.005371,106.472656 Z M170.800781,103.406738 C170.800781,104.452642 170.40601,105.259275 169.616455,105.82666 C168.8269,106.394046 167.721199,106.677734 166.299316,106.677734 C164.91845,106.677734 163.853764,106.450442 163.105225,105.99585 C162.356686,105.541257 161.86963,104.832036 161.644043,103.868164 L163.274414,103.550293 C163.431641,104.145023 163.756345,104.580809 164.248535,104.857666 C164.740725,105.134523 165.424312,105.272949 166.299316,105.272949 C167.235845,105.272949 167.92114,105.129396 168.355225,104.842285 C168.789309,104.555174 169.006348,104.124515 169.006348,103.550293 C169.006348,103.112791 168.855959,102.757326 168.555176,102.483887 C168.254393,102.210448 167.769046,101.984864 167.099121,101.807129 L165.776367,101.458496 C164.716792,101.185057 163.963137,100.916749 163.515381,100.653564 C163.067625,100.39038 162.717286,100.070803 162.464355,99.6948242 C162.211425,99.3188458 162.084961,98.8574246 162.084961,98.3105469 C162.084961,97.2988231 162.445553,96.5280788 163.166748,95.998291 C163.887943,95.4685032 164.938958,95.2036133 166.319824,95.2036133 C167.543463,95.2036133 168.515866,95.4189432 169.237061,95.8496094 C169.958256,96.2802756 170.41455,96.9706984 170.605957,97.9208984 L168.944824,98.1259766 C168.842285,97.6337866 168.567141,97.2561048 168.119385,96.9929199 C167.671629,96.729735 167.071781,96.5981445 166.319824,96.5981445 C165.485836,96.5981445 164.870607,96.7246081 164.474121,96.9775391 C164.077635,97.23047 163.879395,97.6132787 163.879395,98.1259766 C163.879395,98.4404313 163.961425,98.7001943 164.125488,98.9052734 C164.289552,99.1103526 164.532225,99.2846673 164.853516,99.4282227 C165.174806,99.5717781 165.851557,99.7700183 166.883789,100.022949 C167.861333,100.269044 168.565428,100.496337 168.996094,100.704834 C169.42676,100.913331 169.766844,101.144042 170.016357,101.396973 C170.26587,101.649904 170.458984,101.942137 170.595703,102.273682 C170.732423,102.605226 170.800781,102.982908 170.800781,103.406738 L170.800781,103.406738 Z M182.356934,100.915039 C182.356934,102.856455 181.929692,104.302241 181.075195,105.252441 C180.220699,106.202641 178.979989,106.677734 177.353027,106.677734 C175.732902,106.677734 174.509281,106.183843 173.682129,105.196045 C172.854976,104.208247 172.441406,102.781259 172.441406,100.915039 C172.441406,97.0868949 174.099105,95.1728516 177.414551,95.1728516 C179.109872,95.1728516 180.357418,95.6393996 181.157227,96.5725098 C181.957035,97.5056199 182.356934,98.9531152 182.356934,100.915039 L182.356934,100.915039 Z M180.418945,100.915039 C180.418945,99.3837814 180.191653,98.2712437 179.737061,97.5773926 C179.282468,96.8835415 178.51856,96.5366211 177.445312,96.5366211 C176.365229,96.5366211 175.584231,96.8903773 175.102295,97.5979004 C174.620359,98.3054235 174.379395,99.4111253 174.379395,100.915039 C174.379395,102.377937 174.616941,103.476803 175.092041,104.21167 C175.567141,104.946537 176.31396,105.313965 177.33252,105.313965 C178.439947,105.313965 179.231199,104.9585 179.706299,104.247559 C180.181399,103.536618 180.418945,102.425789 180.418945,100.915039 L180.418945,100.915039 Z M186.458496,95.3779297 L186.458496,102.412109 C186.458496,103.143558 186.530273,103.710935 186.673828,104.114258 C186.817384,104.51758 187.046385,104.808105 187.36084,104.98584 C187.675295,105.163575 188.136716,105.252441 188.745117,105.252441 C189.633794,105.252441 190.33447,104.948245 190.847168,104.339844 C191.359866,103.731442 191.616211,102.887212 191.616211,101.807129 L191.616211,95.3779297 L193.461914,95.3779297 L193.461914,104.104004 C193.461914,105.396003 193.482422,106.185545 193.523438,106.472656 L191.780273,106.472656 C191.773437,106.438476 191.766602,106.346192 191.759766,106.195801 C191.75293,106.045409 191.744385,105.872804 191.734131,105.677979 C191.723877,105.483153 191.711914,105.115725 191.698242,104.575684 L191.66748,104.575684 C191.24365,105.341312 190.753177,105.883055 190.196045,106.200928 C189.638913,106.5188 188.946781,106.677734 188.119629,106.677734 C186.902826,106.677734 186.012454,106.375247 185.448486,105.770264 C184.884519,105.16528 184.602539,104.165534 184.602539,102.770996 L184.602539,95.3779297 L186.458496,95.3779297 Z M196.374023,106.472656 L196.374023,97.9619141 C196.374023,97.1826133 196.353516,96.3212938 196.3125,95.3779297 L198.055664,95.3779297 C198.110352,96.6357485 198.137695,97.391112 198.137695,97.644043 L198.178711,97.644043 C198.472658,96.6938429 198.811033,96.0444353 199.193848,95.6958008 C199.576662,95.3471662 200.116696,95.1728516 200.813965,95.1728516 C201.06006,95.1728516 201.309569,95.2070309 201.5625,95.2753906 L201.5625,96.9672852 C201.316405,96.8989254 200.988283,96.8647461 200.578125,96.8647461 C199.812496,96.8647461 199.228029,97.1945768 198.824707,97.854248 C198.421385,98.5139193 198.219727,99.4589782 198.219727,100.689453 L198.219727,106.472656 L196.374023,106.472656 Z M204.730957,100.874023 C204.730957,102.350593 204.963377,103.444332 205.428223,104.155273 C205.893069,104.866214 206.593745,105.22168 207.530273,105.22168 C208.186527,105.22168 208.735105,105.043947 209.176025,104.688477 C209.616946,104.333006 209.888671,103.786137 209.991211,103.047852 L211.857422,103.170898 C211.713866,104.23731 211.259281,105.088376 210.493652,105.724121 C209.728024,106.359866 208.75733,106.677734 207.581543,106.677734 C206.029777,106.677734 204.845463,106.187261 204.028564,105.206299 C203.211666,104.225337 202.803223,102.794931 202.803223,100.915039 C202.803223,99.0488188 203.213375,97.625249 204.033691,96.6442871 C204.854008,95.6633252 206.029777,95.1728516 207.561035,95.1728516 C208.695806,95.1728516 209.637447,95.4667939 210.385986,96.0546875 C211.134525,96.6425811 211.604491,97.4526316 211.795898,98.4848633 L209.898926,98.628418 C209.803222,98.0131805 209.560549,97.5244159 209.170898,97.1621094 C208.781248,96.7998029 208.227543,96.6186523 207.509766,96.6186523 C206.532222,96.6186523 205.824709,96.9433561 205.387207,97.5927734 C204.949705,98.2421907 204.730957,99.3359298 204.730957,100.874023 L204.730957,100.874023 Z M215.241211,101.314941 C215.241211,102.586432 215.504392,103.567379 216.030762,104.257812 C216.557132,104.948246 217.326167,105.293457 218.337891,105.293457 C219.137699,105.293457 219.778562,105.132814 220.260498,104.811523 C220.742434,104.490233 221.068847,104.083499 221.239746,103.591309 L222.859863,104.052734 C222.196774,105.802743 220.689465,106.677734 218.337891,106.677734 C216.697257,106.677734 215.448002,106.18897 214.590088,105.211426 C213.732173,104.233882 213.303223,102.78126 213.303223,100.853516 C213.303223,99.0214752 213.732173,97.6167041 214.590088,96.6391602 C215.448002,95.6616162 216.673332,95.1728516 218.266113,95.1728516 C221.526872,95.1728516 223.157227,97.1381639 223.157227,101.068848 L223.157227,101.314941 L215.241211,101.314941 Z M221.25,99.8999023 C221.14746,98.7309512 220.8501,97.8781765 220.35791,97.3415527 C219.86572,96.804929 219.158208,96.5366211 218.235352,96.5366211 C217.339839,96.5366211 216.630618,96.8356904 216.107666,97.4338379 C215.584714,98.0319854 215.302735,98.8539987 215.261719,99.8999023 L221.25,99.8999023 Z" id="теперь-open-source" fill="#FFFFFF" sketch:type="MSShapeGroup" transform="translate(130.195312, 103.001709) rotate(-314.000000) translate(-130.195312, -103.001709) "></path>
            </g>
        </g>
    </g>
</svg>